<svg xmlns="http://www.w3.org/2000/svg" xmlns:xlink="http://www.w3.org/1999/xlink" width="472.175" height="350.54" viewBox="0 0 472.175 350.54">
  <defs>
    <clipPath id="clip-path">
      <path id="Trazado_57752" data-name="Trazado 57752" d="M77.769,116.292,58.027,97.52H97.51L77.769,116.292" transform="translate(-58.027 -97.52)" fill="none"/>
    </clipPath>
  </defs>
  <g id="Grupo_1099237" data-name="Grupo 1099237" transform="translate(-895 -3837.383)">
    <g id="Grupo_1099236" data-name="Grupo 1099236">
      <g id="Grupo_1099235" data-name="Grupo 1099235">
        <g id="Grupo_1099234" data-name="Grupo 1099234">
          <g id="Grupo_1099233" data-name="Grupo 1099233">
            <g id="Grupo_1099232" data-name="Grupo 1099232">
              <g id="Grupo_1099231" data-name="Grupo 1099231">
                <path id="Trazado_873116" data-name="Trazado 873116" d="M210.65,73.881C175.378,69.01,138.118,70.2,106.021,85.618,61.509,107,32.275,155.47,31.154,204.838s24.6,97.877,64.328,127.2S187.61,371.757,236.2,362.952c48.994-8.879,94.98-37.664,120.537-80.4,16.387-27.4,24.047-61.239,14.994-91.858-5.466-18.481-16.639-34.855-29.782-48.952A220.04,220.04,0,0,0,210.65,73.881Z" transform="translate(963.881 3821.939)" fill="#ffd947"/>
                <g id="Grupo_28804" data-name="Grupo 28804" transform="translate(895 3887.826)">
                  <g id="Grupo_28753" data-name="Grupo 28753" transform="translate(6.085 0)">
                    <g id="Grupo_28740" data-name="Grupo 28740" transform="translate(0 6.295)">
                      <g id="Grupo_28736" data-name="Grupo 28736" transform="translate(0 0.102)">
                        <circle id="Elipse_1403" data-name="Elipse 1403" cx="35.577" cy="35.577" r="35.577" transform="matrix(-0.913, -0.408, 0.408, -0.913, 64.972, 93.981)" fill="#fdffff"/>
                        <g id="Grupo_28735" data-name="Grupo 28735" transform="translate(29.25 29.25)">
                          <path id="Trazado_57739" data-name="Trazado 57739" d="M537.4,117.16h4.436v-1.479H537.4a.74.74,0,0,1-.739-.739v-17a.74.74,0,0,1,.739-.74h31.045a.741.741,0,0,1,.74.74v17a.74.74,0,0,1-.74.739h-4.435v1.479h4.435a2.22,2.22,0,0,0,2.217-2.217v-17a2.22,2.22,0,0,0-2.217-2.218H537.4a2.22,2.22,0,0,0-2.217,2.218v17A2.22,2.22,0,0,0,537.4,117.16Z" transform="translate(-535.187 -88.333)" fill="#7a98c5"/>
                          <path id="Trazado_57740" data-name="Trazado 57740" d="M543.558,130.264h23.653V117.7H543.558Zm22.175-1.478h-20.7v-9.609h20.7Z" transform="translate(-537.645 -94.784)" fill="#7a98c5"/>
                          <path id="Trazado_57741" data-name="Trazado 57741" d="M543.558,94.131h23.653v-8.87H543.558Zm22.175-1.479h-20.7V86.74h20.7Z" transform="translate(-537.645 -85.261)" fill="#7a98c5"/>
                          <rect id="Rectángulo_5616" data-name="Rectángulo 5616" width="26.61" height="1.478" transform="translate(4.435 22.914)" fill="#7a98c5"/>
                          <rect id="Rectángulo_5617" data-name="Rectángulo 5617" width="2.217" height="1.478" transform="translate(8.131 11.088)" fill="#7a98c5"/>
                          <rect id="Rectángulo_5618" data-name="Rectángulo 5618" width="2.218" height="1.478" transform="translate(3.696 11.088)" fill="#7a98c5"/>
                          <rect id="Rectángulo_5619" data-name="Rectángulo 5619" width="16.262" height="1.478" transform="translate(9.609 26.61)" fill="#7a98c5"/>
                          <rect id="Rectángulo_5620" data-name="Rectángulo 5620" width="16.262" height="1.478" transform="translate(9.609 31.045)" fill="#7a98c5"/>
                        </g>
                      </g>
                      <g id="Grupo_28739" data-name="Grupo 28739" transform="translate(63.53 0)">
                        <ellipse id="Elipse_1404" data-name="Elipse 1404" cx="20.519" cy="20.519" rx="20.519" ry="20.519" transform="translate(0)" fill="#7a98c5"/>
                        <g id="Grupo_28738" data-name="Grupo 28738" transform="translate(8.212 8.211)">
                          <path id="Trazado_57742" data-name="Trazado 57742" d="M620.412,85.307a9.015,9.015,0,1,0-9.015-9.014A9.025,9.025,0,0,0,620.412,85.307Zm0-16.979a7.964,7.964,0,1,1-7.964,7.965A7.973,7.973,0,0,1,620.412,68.328Z" transform="translate(-608.86 -64.74)" fill="#fdf9ff"/>
                          <g id="Grupo_28737" data-name="Grupo 28737">
                            <path id="Trazado_57743" data-name="Trazado 57743" d="M623.94,86.79a.526.526,0,0,0,.526-.525V64.211a.525.525,0,1,0-1.05,0V86.265A.526.526,0,0,0,623.94,86.79Z" transform="translate(-612.388 -63.685)" fill="#fdf9ff"/>
                            <path id="Trazado_57744" data-name="Trazado 57744" d="M608.33,80.346h22.055a.525.525,0,1,0,0-1.05H608.33a.525.525,0,0,0,0,1.05Z" transform="translate(-607.805 -68.268)" fill="#fdf9ff"/>
                          </g>
                        </g>
                      </g>
                    </g>
                    <g id="Grupo_28749" data-name="Grupo 28749" transform="translate(419.595 15.329)">
                      <g id="Grupo_28742" data-name="Grupo 28742" transform="translate(3.859 0)">
                        <rect id="Rectángulo_5624" data-name="Rectángulo 5624" width="31.765" height="32.019" transform="translate(0)" fill="#7a98c5"/>
                        <path id="Trazado_57748" data-name="Trazado 57748" d="M95.013,129.59v11.163l9.5-11.163Z" transform="translate(-95.013 -102.736)" fill="#7a98c5"/>
                      </g>
                      <g id="Grupo_28748" data-name="Grupo 28748" transform="translate(0 4.199)">
                        <path id="Trazado_57749" data-name="Trazado 57749" d="M82.339,123.027a2.567,2.567,0,1,0,2.567-2.567A2.567,2.567,0,0,0,82.339,123.027Z" transform="translate(-65.165 -104.255)" fill="#fff"/>
                        <g id="Grupo_28747" data-name="Grupo 28747">
                          <g id="Grupo_28746" data-name="Grupo 28746" clip-path="url(#clip-path)">
                            <g id="Grupo_28745" data-name="Grupo 28745" transform="translate(5.222 4.252)">
                              <g id="Grupo_28743" data-name="Grupo 28743" transform="translate(5.772 5.774)">
                                <path id="Trazado_57750" data-name="Trazado 57750" d="M82.34,129.206a8.746,8.746,0,1,0-8.748-8.748A8.755,8.755,0,0,0,82.34,129.206Zm0-15.059a6.312,6.312,0,1,1-6.314,6.311A6.318,6.318,0,0,1,82.34,114.147Z" transform="translate(-73.592 -111.713)" fill="#fff"/>
                              </g>
                              <g id="Grupo_28744" data-name="Grupo 28744">
                                <path id="Trazado_57751" data-name="Trazado 57751" d="M79.938,132.579a14.52,14.52,0,1,0-14.52-14.52A14.536,14.536,0,0,0,79.938,132.579Zm0-26.606a12.086,12.086,0,1,1-12.085,12.085A12.1,12.1,0,0,1,79.938,105.973Z" transform="translate(-65.418 -103.539)" fill="#fff"/>
                              </g>
                            </g>
                          </g>
                        </g>
                      </g>
                    </g>
                    <g id="Grupo_28752" data-name="Grupo 28752" transform="translate(156.744 0)">
                      <g id="Grupo_28750" data-name="Grupo 28750">
                        <ellipse id="Elipse_1405" data-name="Elipse 1405" cx="29.221" cy="29.221" rx="29.221" ry="29.221" fill="#fdffff"/>
                      </g>
                      <g id="Grupo_28751" data-name="Grupo 28751" transform="translate(16.62 16.426)">
                        <path id="Trazado_57753" data-name="Trazado 57753" d="M232.49,74.571a12.6,12.6,0,1,0,5.666-6.577" transform="translate(-231.688 -66.403)" fill="none" stroke="#7a98c5" stroke-linecap="round" stroke-linejoin="round" stroke-width="2.759"/>
                        <path id="Trazado_57754" data-name="Trazado 57754" d="M260.292,74.434l-4.559,4.66-8.915-10.434" transform="translate(-245.779 -67.065)" fill="none" stroke="#7a98c5" stroke-linecap="round" stroke-linejoin="round" stroke-width="2.759"/>
                      </g>
                    </g>
                  </g>
                  <g id="Grupo_28803" data-name="Grupo 28803" transform="translate(0 24.477)">
                    <g id="Grupo_28802" data-name="Grupo 28802" transform="translate(10.228)">
                      <g id="Grupo_28776" data-name="Grupo 28776" transform="translate(0 30.79)">
                        <g id="Grupo_28771" data-name="Grupo 28771" transform="translate(47.125)">
                          <g id="Grupo_28758" data-name="Grupo 28758" transform="translate(21.639 107.324)">
                            <g id="Grupo_28755" data-name="Grupo 28755" transform="translate(0)">
                              <g id="Grupo_28754" data-name="Grupo 28754">
                                <rect id="Rectángulo_5625" data-name="Rectángulo 5625" width="19.383" height="99.458" transform="translate(15.445)" fill="#7a98c5"/>
                                <path id="Rectángulo_5626" data-name="Rectángulo 5626" d="M10.457,0H39.3A10.457,10.457,0,0,1,49.76,10.457v0a0,0,0,0,1,0,0H0a0,0,0,0,1,0,0v0A10.457,10.457,0,0,1,10.457,0Z" transform="translate(0 89.001)" fill="#7a98c5"/>
                                <rect id="Rectángulo_5627" data-name="Rectángulo 5627" width="19.383" height="99.458" transform="translate(20.968)" fill="#2f3052"/>
                                <path id="Rectángulo_5628" data-name="Rectángulo 5628" d="M10.457,0H39.3A10.457,10.457,0,0,1,49.76,10.457v0a0,0,0,0,1,0,0H0a0,0,0,0,1,0,0v0A10.457,10.457,0,0,1,10.457,0Z" transform="translate(5.523 89.001)" fill="#2f3052"/>
                              </g>
                              <path id="Trazado_57756" data-name="Trazado 57756" d="M572.476,300.038v12.874l-24.906-8.4v-4.479Z" transform="translate(-532.125 -300.038)" fill="#acacac" style="mix-blend-mode: multiply;isolation: isolate"/>
                            </g>
                            <g id="Grupo_28757" data-name="Grupo 28757" transform="translate(204.101)">
                              <g id="Grupo_28756" data-name="Grupo 28756" transform="translate(0)">
                                <rect id="Rectángulo_5629" data-name="Rectángulo 5629" width="19.383" height="99.458" transform="translate(15.445)" fill="#7a98c5"/>
                                <path id="Rectángulo_5630" data-name="Rectángulo 5630" d="M10.457,0H39.3A10.457,10.457,0,0,1,49.76,10.457v0a0,0,0,0,1,0,0H0a0,0,0,0,1,0,0v0A10.457,10.457,0,0,1,10.457,0Z" transform="translate(0 89.001)" fill="#7a98c5"/>
                                <rect id="Rectángulo_5631" data-name="Rectángulo 5631" width="19.383" height="99.458" transform="translate(20.968)" fill="#2f3052"/>
                                <path id="Rectángulo_5632" data-name="Rectángulo 5632" d="M10.457,0H39.3A10.457,10.457,0,0,1,49.76,10.457v0a0,0,0,0,1,0,0H0a0,0,0,0,1,0,0v0A10.457,10.457,0,0,1,10.457,0Z" transform="translate(5.523 89.001)" fill="#2f3052"/>
                              </g>
                              <path id="Trazado_57757" data-name="Trazado 57757" d="M283.55,300.038v12.874l-24.906-8.4v-4.479Z" transform="translate(-243.199 -300.038)" fill="#acacac" style="mix-blend-mode: multiply;isolation: isolate"/>
                            </g>
                          </g>
                          <g id="Grupo_28763" data-name="Grupo 28763" transform="translate(0 28.048)">
                            <g id="Grupo_28760" data-name="Grupo 28760">
                              <path id="Trazado_57758" data-name="Trazado 57758" d="M603.785,187.815H553.24a11.369,11.369,0,0,0-9.9,5.788l-14.8,26.594a4.866,4.866,0,0,0,4.24,7.255h53.834Z" transform="translate(-527.899 -187.815)" fill="#2f3052"/>
                              <path id="Trazado_57759" data-name="Trazado 57759" d="M560.764,187.815,538.5,227.453H556.34l21.619-39.638Z" transform="translate(-509.564 -187.815)" fill="#acacac" style="mix-blend-mode: multiply;isolation: isolate"/>
                              <g id="Grupo_28759" data-name="Grupo 28759" transform="translate(8.704 9.7)">
                                <path id="Trazado_57760" data-name="Trazado 57760" d="M594.447,201.546l-2.512,4.426H578.6l2.583-4.426Z" transform="translate(-563.081 -201.546)" fill="#7a98c5"/>
                                <path id="Trazado_57761" data-name="Trazado 57761" d="M597.36,209.874l-.741,1.321H583.285l.812-1.321Z" transform="translate(-569.303 -203.991)" fill="#f3e2d9"/>
                                <path id="Trazado_57762" data-name="Trazado 57762" d="M599.269,213.243l-.741,1.321H585.194l.812-1.321Z" transform="translate(-572.561 -204.98)" fill="#f3e2d9"/>
                                <path id="Trazado_57763" data-name="Trazado 57763" d="M600.839,216.6l-.741,1.321H586.763l.812-1.321Z" transform="translate(-575.24 -205.964)" fill="#f3e2d9"/>
                                <path id="Trazado_57764" data-name="Trazado 57764" d="M605.583,224.7l-.741,1.321H591.508l.812-1.321Z" transform="translate(-583.335 -208.343)" fill="#f3e2d9"/>
                                <path id="Trazado_57765" data-name="Trazado 57765" d="M607.492,228.066l-.741,1.322H593.417l.812-1.322Z" transform="translate(-586.593 -209.332)" fill="#f3e2d9"/>
                                <path id="Trazado_57766" data-name="Trazado 57766" d="M610.37,220.015l-1.145,2.042h-20.6l1.254-2.042Z" transform="translate(-586.085 -206.968)" fill="#7a98c5"/>
                                <path id="Trazado_57767" data-name="Trazado 57767" d="M612.391,201.546l-6.757,11.7h-4.6l6.828-11.7Z" transform="translate(-596.871 -201.546)" fill="#7a98c5"/>
                                <path id="Trazado_57768" data-name="Trazado 57768" d="M620.166,224.7l-2.223,3.7h-4.6l2.293-3.7Z" transform="translate(-613.342 -208.343)" fill="#7a98c5"/>
                              </g>
                            </g>
                            <g id="Grupo_28762" data-name="Grupo 28762" transform="translate(27.277)">
                              <path id="Trazado_57769" data-name="Trazado 57769" d="M497.571,267.091H259.031V252.056a33.693,33.693,0,0,1,4.025-15.969L285.335,194.7a13.088,13.088,0,0,1,11.524-6.884H497.571Z" transform="translate(-259.031 -187.815)" fill="#7a98c5"/>
                              <path id="Trazado_57770" data-name="Trazado 57770" d="M291.149,267.091h-57.89V252.056a33.693,33.693,0,0,1,4.025-15.969l22.395-41.6a12.678,12.678,0,0,1,11.163-6.669h20.307Z" transform="translate(-34.403 -187.815)" fill="#2f3052"/>
                              <g id="Grupo_28761" data-name="Grupo 28761" transform="translate(42.227 13.447)">
                                <path id="Trazado_57771" data-name="Trazado 57771" d="M463.582,230.6l13.366-23.752H349.572l-16.954,28.558" transform="translate(-332.617 -206.85)" fill="none" stroke="#2f3052" stroke-miterlimit="10" stroke-width="1.062"/>
                                <line id="Línea_1" data-name="Línea 1" x1="127.818" transform="translate(10.317 10.991)" fill="none" stroke="#2f3052" stroke-miterlimit="10" stroke-width="2.123"/>
                                <path id="Trazado_57772" data-name="Trazado 57772" d="M481.544,234.659H353.516l-5.244,8.914,130.965-4.806Z" transform="translate(-348.272 -215.014)" fill="#2f3052"/>
                              </g>
                            </g>
                          </g>
                          <g id="Grupo_28770" data-name="Grupo 28770" transform="translate(209.27)">
                            <g id="Grupo_28769" data-name="Grupo 28769" transform="translate(0)">
                              <g id="Grupo_28764" data-name="Grupo 28764" transform="translate(0)">
                                <rect id="Rectángulo_5633" data-name="Rectángulo 5633" width="6.13" height="28.048" transform="translate(0)" fill="#7a98c5"/>
                                <rect id="Rectángulo_5634" data-name="Rectángulo 5634" width="15.322" height="28.048" transform="translate(6.13)" fill="#2f3052"/>
                              </g>
                              <g id="Grupo_28765" data-name="Grupo 28765" transform="translate(10.589)">
                                <rect id="Rectángulo_5635" data-name="Rectángulo 5635" width="6.13" height="28.048" transform="translate(0)" fill="#7a98c5"/>
                                <rect id="Rectángulo_5636" data-name="Rectángulo 5636" width="15.321" height="28.048" transform="translate(6.13)" fill="#2f3052"/>
                              </g>
                              <g id="Grupo_28766" data-name="Grupo 28766" transform="translate(21.315)">
                                <rect id="Rectángulo_5637" data-name="Rectángulo 5637" width="6.13" height="28.048" transform="translate(0)" fill="#7a98c5"/>
                                <rect id="Rectángulo_5638" data-name="Rectángulo 5638" width="15.321" height="28.048" transform="translate(6.13)" fill="#2f3052"/>
                              </g>
                              <g id="Grupo_28767" data-name="Grupo 28767" transform="translate(32.744)">
                                <rect id="Rectángulo_5639" data-name="Rectángulo 5639" width="6.13" height="28.048" transform="translate(0)" fill="#7a98c5"/>
                                <rect id="Rectángulo_5640" data-name="Rectángulo 5640" width="15.322" height="28.048" transform="translate(6.13)" fill="#2f3052"/>
                              </g>
                              <g id="Grupo_28768" data-name="Grupo 28768" transform="translate(1.522 2.772)">
                                <path id="Trazado_57773" data-name="Trazado 57773" d="M286.14,153.623a1.588,1.588,0,1,0,1.588-1.588A1.588,1.588,0,0,0,286.14,153.623Z" transform="translate(-253.44 -152.035)" fill="#fdffff"/>
                                <path id="Trazado_57774" data-name="Trazado 57774" d="M302.319,153.623a1.588,1.588,0,1,0,1.588-1.588A1.588,1.588,0,0,0,302.319,153.623Z" transform="translate(-281.048 -152.035)" fill="#fdffff"/>
                                <path id="Trazado_57775" data-name="Trazado 57775" d="M317.5,153.623a1.588,1.588,0,1,0,1.588-1.588A1.589,1.589,0,0,0,317.5,153.623Z" transform="translate(-306.959 -152.035)" fill="#fdffff"/>
                                <ellipse id="Elipse_1406" data-name="Elipse 1406" cx="1.588" cy="1.588" rx="1.588" ry="1.588" transform="translate(0 0)" fill="#fdffff"/>
                              </g>
                            </g>
                            <rect id="Rectángulo_5641" data-name="Rectángulo 5641" width="54.196" height="4.071" transform="translate(0 23.977)" fill="#acacac" style="mix-blend-mode: multiply;isolation: isolate"/>
                          </g>
                        </g>
                        <g id="Grupo_28775" data-name="Grupo 28775" transform="translate(0 65.246)">
                          <g id="Grupo_28773" data-name="Grupo 28773" transform="translate(109.155)">
                            <path id="Trazado_57776" data-name="Trazado 57776" d="M444.1,381.345h0a23.887,23.887,0,0,1-23.887,23.887H367.83V381.345Z" transform="translate(-317.167 -281.831)" fill="#fff"/>
                            <path id="Trazado_57777" data-name="Trazado 57777" d="M489.978,240.473H368.463s-16.924,1.354-16.924,23.017v76.5H478.47V264.592a29.251,29.251,0,0,1,7.282-19.313Z" transform="translate(-351.539 -240.473)" fill="#fdffff"/>
                            <g id="Grupo_28772" data-name="Grupo 28772" transform="translate(24.134 22.947)">
                              <ellipse id="Elipse_1407" data-name="Elipse 1407" cx="20.324" cy="20.324" rx="20.324" ry="20.324" transform="translate(15.473)" fill="#61abeb" style="mix-blend-mode: multiply;isolation: isolate"/>
                              <ellipse id="Elipse_1408" data-name="Elipse 1408" cx="20.324" cy="20.324" rx="20.324" ry="20.324" transform="translate(28.884 22.796)" fill="#c80788" style="mix-blend-mode: multiply;isolation: isolate"/>
                              <ellipse id="Elipse_1409" data-name="Elipse 1409" cx="20.324" cy="20.324" rx="20.324" ry="20.324" transform="translate(0 22.796)" fill="#f8f039" style="mix-blend-mode: multiply;isolation: isolate"/>
                            </g>
                          </g>
                          <g id="Grupo_28774" data-name="Grupo 28774" transform="translate(0 99.494)">
                            <path id="Trazado_57778" data-name="Trazado 57778" d="M442.538,381.337s11.236-.988,11.236,10.889,9.635,13,9.635,13H433.6V381.337Z" transform="translate(-273.787 -381.317)" fill="#5f70a1"/>
                            <path id="Trazado_57779" data-name="Trazado 57779" d="M602.8,381.345H475.06s-11.91.627-11.91,13.728v15.483H593.864V394.241S593.932,381.345,602.8,381.345Z" transform="translate(-434.046 -381.325)" fill="#9abde7"/>
                            <path id="Trazado_57780" data-name="Trazado 57780" d="M506.606,417.25s-1.568,9.635,14.118,12.685H644.646L629.573,417.25V404.144H506.563Z" transform="translate(-506.562 -388.018)" fill="#fff"/>
                            <path id="Trazado_57781" data-name="Trazado 57781" d="M512.6,422.7h0a12.685,12.685,0,0,1-12.685,12.685H488.48A12.685,12.685,0,0,1,475.795,422.7H512.6Z" transform="translate(-352.784 -393.465)" fill="#9abde7"/>
                          </g>
                        </g>
                      </g>
                      <g id="Grupo_28801" data-name="Grupo 28801" transform="translate(342.887)">
                        <g id="Grupo_28800" data-name="Grupo 28800" transform="translate(0)">
                          <g id="Grupo_28784" data-name="Grupo 28784" transform="translate(9.117 94.262)">
                            <g id="Grupo_28779" data-name="Grupo 28779" transform="translate(33.278 114.036)">
                              <g id="Grupo_28778" data-name="Grupo 28778" transform="translate(0 15.178)">
                                <path id="Trazado_57782" data-name="Trazado 57782" d="M141.862,420.876H131.1l-17.8,9.524,30.612-.365Z" transform="translate(-113.293 -420.876)" fill="#101010"/>
                                <g id="Grupo_28777" data-name="Grupo 28777" transform="translate(0 9.159)">
                                  <path id="Trazado_57783" data-name="Trazado 57783" d="M143.861,437.87l-.106-4.029-30.612.365.107,4.029Z" transform="translate(-113.142 -433.842)" fill="#fff"/>
                                </g>
                                <line id="Línea_2" data-name="Línea 2" x2="3.527" y2="0.964" transform="translate(10.363 3.507)" fill="none" stroke="#fff" stroke-linecap="round" stroke-linejoin="round" stroke-width="0.959"/>
                                <line id="Línea_3" data-name="Línea 3" x2="3.527" y2="0.964" transform="translate(13.811 1.738)" fill="none" stroke="#fff" stroke-linecap="round" stroke-linejoin="round" stroke-width="0.959"/>
                              </g>
                              <path id="Trazado_57784" data-name="Trazado 57784" d="M116.186,399.391h10.973l2.5,15.177H118.686Z" transform="translate(-101.09 -399.391)" fill="#fdffff"/>
                            </g>
                            <g id="Grupo_28782" data-name="Grupo 28782" transform="translate(0 114.367)">
                              <g id="Grupo_28781" data-name="Grupo 28781" transform="translate(0 15.178)">
                                <path id="Trazado_57785" data-name="Trazado 57785" d="M188.97,421.345H178.2l-17.8,9.524,30.612-.365Z" transform="translate(-160.401 -421.345)" fill="#101010"/>
                                <g id="Grupo_28780" data-name="Grupo 28780" transform="translate(0 9.159)">
                                  <path id="Trazado_57786" data-name="Trazado 57786" d="M190.969,438.339l-.107-4.029-30.612.365.107,4.029Z" transform="translate(-160.25 -434.31)" fill="#fff"/>
                                </g>
                                <line id="Línea_4" data-name="Línea 4" x2="3.527" y2="0.964" transform="translate(10.363 3.508)" fill="none" stroke="#fff" stroke-linecap="round" stroke-linejoin="round" stroke-width="0.959"/>
                                <line id="Línea_5" data-name="Línea 5" x2="3.527" y2="0.964" transform="translate(13.81 1.738)" fill="none" stroke="#fff" stroke-linecap="round" stroke-linejoin="round" stroke-width="0.959"/>
                              </g>
                              <path id="Trazado_57787" data-name="Trazado 57787" d="M163.219,399.859h10.973l-.18,15.177H163.04Z" transform="translate(-145.444 -399.859)" fill="#fdffff"/>
                            </g>
                            <g id="Grupo_28783" data-name="Grupo 28783" transform="translate(15.359)">
                              <path id="Trazado_57788" data-name="Trazado 57788" d="M118.115,237.962s-.908,1.939-2.573,19.8c-.343,3.671-.555,8.786-.518,12.473l-.849,91.679,15.7-.169,2.99-96.847,12.844,97.809,16.371-.595L151.852,240.746l-7.393-1.284Z" transform="translate(-114.175 -237.962)" fill="#1b1c3d"/>
                              <line id="Línea_6" data-name="Línea 6" x1="6.713" y1="3.091" transform="translate(11.979 23.845)" fill="none" stroke="#7b7b7b" stroke-linecap="round" stroke-linejoin="round" stroke-width="1.11"/>
                            </g>
                          </g>
                          <g id="Grupo_28796" data-name="Grupo 28796" transform="translate(0 41.658)">
                            <g id="Grupo_28788" data-name="Grupo 28788" transform="translate(18.322 4.833)">
                              <g id="Grupo_28787" data-name="Grupo 28787">
                                <g id="Grupo_28786" data-name="Grupo 28786">
                                  <g id="Grupo_28785" data-name="Grupo 28785">
                                    <path id="Trazado_57789" data-name="Trazado 57789" d="M183.078,170.336s-9.225,5.5-11.018,20.389l13.172,7.237Z" transform="translate(-172.06 -170.336)" fill="#fdffff"/>
                                  </g>
                                </g>
                              </g>
                            </g>
                            <g id="Grupo_28789" data-name="Grupo 28789" transform="translate(24.637)">
                              <path id="Trazado_57790" data-name="Trazado 57790" d="M146.511,163.677a46.212,46.212,0,0,1,13.252,3.077,32.674,32.674,0,0,1,2.992,1.358c2.941,1.539,2.061,4.864,1.691,8.259l-1.728,45.9-37.035-.942-1.47-43.448a10.433,10.433,0,0,1,6.8-10.608c4.85-1.71,10.77-3.625,13.351-3.781Z" transform="translate(-124.187 -163.495)" fill="#fdffff"/>
                              <line id="Línea_7" data-name="Línea 7" x1="0.922" y1="13.442" transform="translate(0.185 16.707)" fill="none" stroke="#7a98c5" stroke-miterlimit="10" stroke-width="0.984"/>
                              <path id="Trazado_57791" data-name="Trazado 57791" d="M139.137,166.519s6.817-2.67,11.168-3.024a48.786,48.786,0,0,1,10.033,1.512s-2.267,4.838-12.7,5.631S139.137,166.519,139.137,166.519Z" transform="translate(-130.124 -163.495)" fill="#e3a299"/>
                            </g>
                            <g id="Grupo_28791" data-name="Grupo 28791" transform="translate(0 21.563)">
                              <g id="Grupo_28790" data-name="Grupo 28790" transform="translate(0.53)">
                                <path id="Trazado_57792" data-name="Trazado 57792" d="M154.594,197.725l7.738,35.956a2.647,2.647,0,0,0,2.634,2.09l28.779-.508a2.647,2.647,0,0,0,2.536-3.228l-8.086-35.95a2.647,2.647,0,0,0-2.629-2.066l-28.432.5A2.647,2.647,0,0,0,154.594,197.725Z" transform="translate(-153.002 -194.019)" fill="#131314"/>
                                <path id="Trazado_57793" data-name="Trazado 57793" d="M156.991,195.711l-1.7,1.756L195.6,236.59l1.819-1.886Z" transform="translate(-154.612 -194.516)" fill="#131314"/>
                                <path id="Trazado_57794" data-name="Trazado 57794" d="M156.76,199.946,164.5,235.9a2.647,2.647,0,0,0,2.635,2.09l28.779-.507a2.648,2.648,0,0,0,2.536-3.228l-8.086-35.949a2.647,2.647,0,0,0-2.629-2.066l-28.432.5A2.647,2.647,0,0,0,156.76,199.946Z" transform="translate(-156.7 -194.671)" fill="#404366"/>
                                <path id="Trazado_57795" data-name="Trazado 57795" d="M184.736,218.947a3.073,3.073,0,1,0,3.38-2.731A3.073,3.073,0,0,0,184.736,218.947Z" transform="translate(-168.844 -200.531)" fill="#9297b7"/>
                              </g>
                              <path id="Trazado_57796" data-name="Trazado 57796" d="M202.955,215.356l2.167,8.777a2.362,2.362,0,0,0,2.336,1.8h0a5.236,5.236,0,0,0,5.051-6.215l-.557-2.925a5.235,5.235,0,0,0-4.8-4.244l-1.747-.115A2.364,2.364,0,0,0,202.955,215.356Z" transform="translate(-202.885 -199.423)" fill="#e3a299"/>
                            </g>
                            <g id="Grupo_28795" data-name="Grupo 28795" transform="translate(49.627 2.771)">
                              <g id="Grupo_28792" data-name="Grupo 28792" transform="translate(0 23.445)">
                                <path id="Trazado_57797" data-name="Trazado 57797" d="M106.154,200.606,88.738,227.2l4.691,5.322,19.226-19.54Z" transform="translate(-71.927 -200.606)" fill="#e3a299"/>
                                <path id="Trazado_57798" data-name="Trazado 57798" d="M116.762,236.756l7.45-3.93-.731-1.7a1.538,1.538,0,0,1,.4-1.772,1.407,1.407,0,0,1,1.8-.03l7.337,5.977,4.435,5.562c-4.024,3.574-6.654,3.531-8.17,2.838-.177.061-.352.128-.531.182l-6.192,1.842a1.16,1.16,0,0,1-1.52-.571c-.2-.419-.275-1.091.916-1.718l-1.192.627a1.206,1.206,0,0,1-1.592-.622,1.47,1.47,0,0,1,.76-1.741l-.913.372a1.244,1.244,0,0,1-1.686-.769,1.37,1.37,0,0,1,.68-1.623l1.317-.692-1.563.393a1.355,1.355,0,0,1-1.759-.918A1.486,1.486,0,0,1,116.762,236.756Z" transform="translate(-115.954 -208.947)" fill="#e3a299"/>
                                <line id="Línea_8" data-name="Línea 8" y1="2.156" x2="4.404" transform="translate(2.984 28.083)" fill="none" stroke="#171717" stroke-linecap="round" stroke-linejoin="round" stroke-width="0.414"/>
                                <line id="Línea_9" data-name="Línea 9" y1="1.835" x2="4.246" transform="translate(4.168 30.841)" fill="none" stroke="#171717" stroke-linecap="round" stroke-linejoin="round" stroke-width="0.414"/>
                                <line id="Línea_10" data-name="Línea 10" y1="1.472" x2="3.598" transform="translate(5.61 33.181)" fill="none" stroke="#171717" stroke-linecap="round" stroke-linejoin="round" stroke-width="0.414"/>
                              </g>
                              <g id="Grupo_28794" data-name="Grupo 28794" transform="translate(5.384)">
                                <path id="Trazado_57799" data-name="Trazado 57799" d="M88.4,185.076l22.147,19.815a5.944,5.944,0,0,0,7.763.791h0a6.482,6.482,0,0,0,1.118-9.481L98.607,175.094A6.837,6.837,0,0,0,89,174.287h0A7.458,7.458,0,0,0,88.4,185.076Z" transform="translate(-83.989 -168.964)" fill="#e3a299"/>
                                <g id="Grupo_28793" data-name="Grupo 28793" transform="translate(0)">
                                  <path id="Trazado_57800" data-name="Trazado 57800" d="M108.915,167.418s8.894,1.8,19.936,15.5L119.4,195.61l-14.409-10.7Z" transform="translate(-104.987 -167.418)" fill="#fdffff"/>
                                  <line id="Línea_11" data-name="Línea 11" x1="8.358" y1="6.208" transform="translate(1.159 18.35)" fill="none" stroke="#7a98c5" stroke-miterlimit="10" stroke-width="0.984"/>
                                </g>
                              </g>
                            </g>
                          </g>
                          <g id="Grupo_28799" data-name="Grupo 28799" transform="translate(24.862)">
                            <path id="Trazado_57801" data-name="Trazado 57801" d="M178.37,133.145a3.6,3.6,0,1,1-2.715-4.3A3.6,3.6,0,0,1,178.37,133.145Z" transform="translate(-171.266 -111.639)" fill="#1e0b02"/>
                            <path id="Trazado_57802" data-name="Trazado 57802" d="M148.084,143.477l.324,14.138,10.623-.922-2.616-22.976Z" transform="translate(-135.461 -113.095)" fill="#e3a299"/>
                            <path id="Trazado_57803" data-name="Trazado 57803" d="M152.724,155.062l7.577-10.084-7.715,2.569Z" transform="translate(-139.912 -116.401)" fill="#1e0b02"/>
                            <path id="Trazado_57804" data-name="Trazado 57804" d="M155.351,113.271c-3.632.486-5.4,4.334-5.762,7.788-.414,3.976-.783,10.14.454,13.159,1.912,4.668,5.969,7.4,12.107,5.74,0,0,7.185-.875,8.223-11.709C171.6,115.431,163.079,112.237,155.351,113.271Z" transform="translate(-147.709 -107.039)" fill="#e3a299"/>
                            <g id="Grupo_28797" data-name="Grupo 28797" transform="translate(0.883 12.507)">
                              <path id="Trazado_57805" data-name="Trazado 57805" d="M177.4,131.194a.823.823,0,1,1-.658-.96A.823.823,0,0,1,177.4,131.194Z" transform="translate(-174.29 -124.576)" fill="#1e0b02"/>
                              <path id="Trazado_57806" data-name="Trazado 57806" d="M167.572,131.194a.823.823,0,1,1-.657-.96A.822.822,0,0,1,167.572,131.194Z" transform="translate(-157.514 -124.576)" fill="#1e0b02"/>
                              <path id="Trazado_57807" data-name="Trazado 57807" d="M173.725,132.891l-.751,2.732a.456.456,0,0,0,.356.557l.87.168" transform="translate(-169.087 -125.36)" fill="none" stroke="#1e0b02" stroke-linecap="round" stroke-linejoin="round" stroke-width="0.604"/>
                              <path id="Trazado_57808" data-name="Trazado 57808" d="M178.55,122.908s.324.976-.891,1.175a8.859,8.859,0,0,0-2.025.457.657.657,0,0,1-.81-.242h0a.648.648,0,0,1,0-.709,3,3,0,0,1,2.018-1.313C178.276,122.019,178.55,122.908,178.55,122.908Z" transform="translate(-174.715 -122.23)" fill="#1f1e2d"/>
                              <path id="Trazado_57809" data-name="Trazado 57809" d="M160.811,122.955s-.372.983,1.2,1.155a18.778,18.778,0,0,1,3.286.79.968.968,0,0,0,1.027-.261h0a.53.53,0,0,0-.025-.709,6.465,6.465,0,0,0-3.314-1.647C161.122,122.061,160.811,122.955,160.811,122.955Z" transform="translate(-152.719 -122.235)" fill="#1f1e2d"/>
                              <path id="Trazado_57810" data-name="Trazado 57810" d="M171.8,139.951a5.25,5.25,0,0,1-4.335.778" transform="translate(-162.804 -127.433)" fill="none" stroke="#1e0b02" stroke-linecap="round" stroke-linejoin="round" stroke-width="0.604"/>
                            </g>
                            <path id="Trazado_57811" data-name="Trazado 57811" d="M154.882,128.842l-1.586-7.913c-.357-1.835.231-3.35.626-5.583-6.951.018-15.125-.088-15.125-.721,0,0,1.977-7.9,14.828-5.673,19.327,3.35,10.473,21.378,3.435,25.333Z" transform="translate(-135.201 -105.708)" fill="#1f1e2d"/>
                            <g id="Grupo_28798" data-name="Grupo 28798" transform="translate(18.845 17.398)">
                              <path id="Trazado_57812" data-name="Trazado 57812" d="M151.4,133.959a3.938,3.938,0,1,1-2.973-4.708A3.937,3.937,0,0,1,151.4,133.959Z" transform="translate(-143.621 -129.153)" fill="#e3a299"/>
                              <path id="Trazado_57813" data-name="Trazado 57813" d="M150.282,132.9a2.884,2.884,0,0,0-3.476,2.6" transform="translate(-144.655 -130.24)" fill="none" stroke="#1e0b02" stroke-linecap="round" stroke-linejoin="round" stroke-width="0.545"/>
                            </g>
                            <path id="Trazado_57814" data-name="Trazado 57814" d="M173.448,114.153s-18.765,2.3-18.5-3.671,11.417-8.484,16.31-2.644Z" transform="translate(-154.727 -104.525)" fill="#1f1e2d"/>
                          </g>
                        </g>
                      </g>
                    </g>
                    <line id="Línea_12" data-name="Línea 12" x1="472.175" transform="translate(0 237.571)" fill="none" stroke="#2f3052" stroke-miterlimit="10" stroke-width="1.476"/>
                  </g>
                </g>
                <g id="Grupo_1098987" data-name="Grupo 1098987" transform="translate(1010 3837.383)">
                  <path id="Trazado_873103" data-name="Trazado 873103" d="M379.063,93.578a1.9,1.9,0,1,0-.127-2.953A1.891,1.891,0,0,0,379.063,93.578Z" transform="translate(-136.895 -90.172)" fill="#fff"/>
                  <path id="Trazado_873104" data-name="Trazado 873104" d="M149.688,396.121a1.9,1.9,0,1,0-.127-2.953A1.891,1.891,0,0,0,149.688,396.121Z" transform="translate(-100.817 -93.028)" fill="#fff"/>
                  <path id="Trazado_873105" data-name="Trazado 873105" d="M417.349,416.572a1.9,1.9,0,1,0-.126-2.953A1.891,1.891,0,0,0,417.349,416.572Z" transform="translate(-168.213 -98.177)" fill="#ffd947"/>
                  <path id="Trazado_873106" data-name="Trazado 873106" d="M303.391,45.119a1.9,1.9,0,1,0-.127-2.953A1.891,1.891,0,0,0,303.391,45.119Z" transform="translate(-48.986 1.204)" fill="#7d6eb2"/>
                  <path id="Trazado_873108" data-name="Trazado 873108" d="M104.719,428.437a1.9,1.9,0,1,0-.127-2.953A1.891,1.891,0,0,0,104.719,428.437Z" transform="translate(-89.494 -101.165)" fill="#fff"/>
                  <path id="Trazado_873109" data-name="Trazado 873109" d="M339.883,405.75a4.146,4.146,0,1,0-2.028-5.913A4.171,4.171,0,0,0,339.883,405.75Z" transform="translate(-148.259 -94.309)" fill="#fff"/>
                  <path id="Trazado_873110" data-name="Trazado 873110" d="M390.693,441.344a4.146,4.146,0,1,0-2.028-5.913A4.17,4.17,0,0,0,390.693,441.344Z" transform="translate(-161.052 -103.271)" fill="#ffd947"/>
                  <path id="Trazado_873111" data-name="Trazado 873111" d="M176.546,57.48a4.146,4.146,0,1,0-2.028-5.913A4.17,4.17,0,0,0,176.546,57.48Z" transform="translate(-128.829 -47.654)" fill="#7d6eb2"/>
                  <path id="Trazado_873113" data-name="Trazado 873113" d="M321.991,68.312a4.146,4.146,0,1,0-2.028-5.913A4.171,4.171,0,0,0,321.991,68.312Z" transform="translate(-53.221 -3.492)" fill="#ffd947"/>
                  <circle id="Elipse_11484" data-name="Elipse 11484" cx="2.031" cy="2.031" r="2.031" transform="translate(20.81 272.088)" fill="none" stroke="#26aab7" stroke-linecap="round" stroke-linejoin="round" stroke-width="1.5"/>
                  <circle id="Elipse_11485" data-name="Elipse 11485" cx="2.031" cy="2.031" r="2.031" transform="translate(55.678 341.969)" fill="none" stroke="#26aab7" stroke-linecap="round" stroke-linejoin="round" stroke-width="1.5"/>
                  <circle id="Elipse_11486" data-name="Elipse 11486" cx="2.031" cy="2.031" r="2.031" transform="translate(261.657 259.72)" fill="none" stroke="#fff" stroke-linecap="round" stroke-linejoin="round" stroke-width="1.5"/>
                  <circle id="Elipse_11487" data-name="Elipse 11487" cx="2.031" cy="2.031" r="2.031" transform="translate(0 150.701)" fill="none" stroke="#7d6eb2" stroke-linecap="round" stroke-linejoin="round" stroke-width="1.5"/>
                  <circle id="Elipse_11488" data-name="Elipse 11488" cx="2.031" cy="2.031" r="2.031" transform="translate(245.445 183.907)" fill="none" stroke="#aee6e6" stroke-linecap="round" stroke-linejoin="round" stroke-width="1.5"/>
                  <circle id="Elipse_11489" data-name="Elipse 11489" cx="2.031" cy="2.031" r="2.031" transform="translate(20.121 57.214)" fill="none" stroke="#7d6eb2" stroke-linecap="round" stroke-linejoin="round" stroke-width="1.5"/>
                </g>
              </g>
            </g>
          </g>
        </g>
      </g>
    </g>
  </g>
</svg>
